<?xml version="1.0" encoding="UTF-8"?><svg id="Ebene_1" xmlns="http://www.w3.org/2000/svg" xmlns:xlink="http://www.w3.org/1999/xlink" viewBox="0 0 595.28 841.89"><defs><style>.cls-1,.cls-2,.cls-3,.cls-4{fill:none;}.cls-2,.cls-3,.cls-4{stroke-linecap:round;stroke-linejoin:round;}.cls-2,.cls-4{stroke:#313329;}.cls-3{stroke:#3b2740;}.cls-5{clip-path:url(#clippath);}.cls-4{stroke-width:.75px;}.cls-6{fill:#7d876d;}.cls-7{fill:#9996a4;}.cls-8{fill:#b7b3c5;}.cls-9{fill:#8b8895;}.cls-10{fill:#a19dad;}.cls-11{fill:#8f8c9a;}.cls-12{fill:#8e8b98;}.cls-13{fill:#bcb8ca;}.cls-14{fill:#c6c1d4;}.cls-15{fill:#c5c1d4;}.cls-16{fill:#888591;}.cls-17{clip-path:url(#clippath-1);}.cls-18{clip-path:url(#clippath-4);}.cls-19{clip-path:url(#clippath-3);}.cls-20{clip-path:url(#clippath-2);}.cls-21{clip-path:url(#clippath-5);}.cls-22{fill:url(#Unbenannter_Verlauf_52);}.cls-23{fill:url(#Unbenannter_Verlauf_63);}.cls-24{fill:url(#Unbenannter_Verlauf_36);}.cls-25{fill:url(#Unbenannter_Verlauf_49);}.cls-26{isolation:isolate;}</style><clipPath id="clippath"><path class="cls-4" d="M448.58,514.21l-29.59-17.2c-2.89-3.17-36.22-33.02-53.56-49.18l29.59,17.2c17.34,16.16,50.67,46.01,53.56,49.18Z"/></clipPath><clipPath id="clippath-1"><path class="cls-4" d="M344.23,574.45l-29.59-17.2c.06-7.11-.2-155.2-.51-179.67l29.59,17.2c.31,24.47,.56,172.56,.51,179.67Z"/></clipPath><clipPath id="clippath-2"><path class="cls-1" d="M478.45,531.77l-29.59-17.2c-2.89-3.17-36.22-33.02-53.56-49.18l29.59,17.2c17.34,16.16,50.67,46.01,53.56,49.18Z"/></clipPath><clipPath id="clippath-3"><path class="cls-1" d="M374.09,592.01l-29.59-17.2c.06-7.11-.2-155.2-.51-179.67l29.59,17.2c.31,24.47,.56,172.56,.51,179.67Z"/></clipPath><clipPath id="clippath-4"><path class="cls-4" d="M508.25,549.33l-29.59-17.2c-2.89-3.17-36.22-33.02-53.56-49.18l29.59,17.2c17.34,16.16,50.67,46.01,53.56,49.18Z"/></clipPath><clipPath id="clippath-5"><path class="cls-4" d="M403.89,609.58l-29.59-17.2c.06-7.11-.2-155.2-.51-179.67l29.59,17.2c.31,24.47,.56,172.56,.51,179.67Z"/></clipPath><radialGradient id="Unbenannter_Verlauf_63" cx="180.24" cy="268.77" fx="180.24" fy="268.77" r="7.36" gradientTransform="translate(0 106.21) scale(1 .6)" gradientUnits="userSpaceOnUse"><stop offset=".56" stop-color="#9692a8"/><stop offset=".63" stop-color="#908ca2"/><stop offset=".71" stop-color="#817d93"/><stop offset=".8" stop-color="#67637b"/><stop offset=".89" stop-color="#444059"/><stop offset=".95" stop-color="#2a253f"/></radialGradient><radialGradient id="Unbenannter_Verlauf_52" cx="180.24" cy="268.77" fx="180.24" fy="268.77" r="7.56" gradientTransform="translate(0 106.11) scale(1 .61)" gradientUnits="userSpaceOnUse"><stop offset=".87" stop-color="#2a253f"/><stop offset=".9" stop-color="#4e4962"/><stop offset=".93" stop-color="#6d6880"/><stop offset=".95" stop-color="#837f96"/><stop offset=".98" stop-color="#918da3"/><stop offset="1" stop-color="#9692a8"/></radialGradient><linearGradient id="Unbenannter_Verlauf_49" x1="175" y1="253.77" x2="186.31" y2="256.19" gradientTransform="matrix(1, 0, 0, 1, 0, 0)" gradientUnits="userSpaceOnUse"><stop offset="0" stop-color="#7d6e90"/><stop offset=".22" stop-color="#827494"/><stop offset=".52" stop-color="#9085a1"/><stop offset=".86" stop-color="#a8a2b6"/><stop offset=".95" stop-color="#b0abbd"/></linearGradient><radialGradient id="Unbenannter_Verlauf_36" cx="179.97" cy="186.18" fx="199.57" fy="154.85" r="53.08" gradientTransform="translate(0 -30.9) scale(1 1.17)" gradientUnits="userSpaceOnUse"><stop offset=".09" stop-color="#d2d0e1"/><stop offset=".26" stop-color="#cccadc"/><stop offset=".48" stop-color="#bdbbce"/><stop offset=".72" stop-color="#a4a1b7"/><stop offset=".97" stop-color="#817e97"/><stop offset="1" stop-color="#7e7a94"/></radialGradient></defs><rect class="cls-6" width="595.28" height="841.89"/><g id="R"><g><g class="cls-26"><g class="cls-5"><g class="cls-26"><path class="cls-4" d="M448.58,514.21l-29.59-17.2c-2.89-3.17-36.22-33.02-53.56-49.18l29.59,17.2c17.34,16.16,50.67,46.01,53.56,49.18"/></g></g><path class="cls-4" d="M448.58,514.21l-29.59-17.2c-2.89-3.17-36.22-33.02-53.56-49.18l29.59,17.2c17.34,16.16,50.67,46.01,53.56,49.18Z"/></g><polygon class="cls-4" points="395.02 465.03 365.42 447.83 366 444.81 395.59 462.01 395.02 465.03"/><path class="cls-4" d="M424.93,407.58v.24c0,.5,0,1-.02,1.49,0,.18,0,.37-.02,.55-.02,.57-.04,1.13-.08,1.68-.03,.54-.07,1.07-.12,1.6l-.08,.73c-.03,.36-.08,.72-.13,1.07,0,.04,0,.09-.02,.13v.04c-.05,.4-.11,.81-.18,1.22-.03,.23-.07,.45-.11,.67-.05,.32-.11,.64-.18,.95-.06,.31-.12,.61-.18,.91h0v.02c-.18,.82-.38,1.65-.6,2.44,0,.02,0,.03-.02,.04-.14,.54-.3,1.06-.47,1.57-.33,1-.68,2.01-1.07,3.02-.08,.2-.15,.39-.24,.6-.18,.46-.37,.92-.56,1.39-.04,.1-.08,.21-.13,.31-.18,.42-.37,.85-.57,1.28-.26,.6-.54,1.19-.83,1.8-.42,.87-.86,1.75-1.34,2.63-.04,.1-.1,.21-.17,.32h0c-.5,.97-1.04,1.93-1.6,2.91-.03,.05-.07,.11-.1,.17h0c-.3,.52-.61,1.03-.93,1.55-.18,.28-.34,.55-.52,.82-.04,.07-.08,.13-.13,.2-.29,.46-.6,.93-.92,1.39-.34,.5-.68,1.01-1.03,1.51-.02,.03-.04,.06-.06,.08-.89,1.27-1.82,2.54-2.81,3.81-1.25,1.61-2.57,3.22-3.97,4.85-.07,.07-.13,.13-.18,.21-.98,1.13-1.92,2.18-2.81,3.17-.44,.48-.86,.94-1.28,1.39-.37,.39-.72,.76-1.07,1.13-.26,.27-.51,.53-.76,.78-.07,.07-.13,.13-.19,.2-.18,.18-.37,.36-.55,.54-.02,.02-.04,.04-.06,.07-1.18,1.17-2.27,2.16-3.23,2.95l-29.6-17.2c.97-.79,2.05-1.77,3.23-2.95l.6-.6c.06-.07,.13-.13,.19-.2,.25-.25,.51-.51,.76-.78,.35-.37,.71-.74,1.07-1.13,.42-.45,.85-.91,1.28-1.39,.89-.98,1.83-2.03,2.81-3.17,.06-.07,.12-.14,.18-.21,1.4-1.62,2.72-3.23,3.97-4.85,.99-1.28,1.92-2.54,2.81-3.81,.02-.03,.04-.06,.06-.08,.35-.5,.71-1.01,1.03-1.51,.27-.39,.53-.79,.78-1.18,.09-.13,.18-.27,.27-.4,.16-.25,.32-.51,.48-.76,.34-.54,.66-1.07,.98-1.6h0c.03-.07,.07-.13,.1-.18,.56-.97,1.1-1.95,1.6-2.91,0,0,0,0,0,0,.27-.5,.52-.99,.76-1.48,.25-.5,.5-.98,.73-1.47,.29-.6,.57-1.2,.83-1.8,.15-.32,.29-.64,.43-.95,.05-.11,.09-.22,.14-.33,.04-.1,.08-.21,.13-.31,.2-.46,.39-.92,.56-1.39,.08-.2,.16-.39,.24-.6,.34-.87,.65-1.73,.93-2.58,.05-.15,.1-.29,.14-.45,.18-.52,.34-1.06,.49-1.6v-.02c.13-.47,.25-.96,.37-1.44,.08-.34,.16-.67,.24-1.02v-.02c.08-.39,.17-.78,.24-1.18,.06-.29,.11-.6,.17-.9,0-.03,0-.05,0-.08,.05-.29,.09-.6,.13-.89,.03-.23,.07-.45,.09-.67,0,0,0-.03,0-.03,0-.05,0-.09,0-.14,.05-.35,.09-.71,.13-1.07l.08-.73c.05-.53,.08-1.06,.12-1.6,.04-.55,.07-1.12,.08-1.68,0-.18,0-.38,.02-.56,0-.49,.02-.98,.02-1.49v-.24c-.02-5.46-1.26-9.62-3.72-12.5-.81-.96-1.74-1.73-2.75-2.32l29.6,17.2c1.02,.59,1.94,1.36,2.75,2.32,2.46,2.88,3.7,7.05,3.72,12.5Z"/><path class="cls-4" d="M377.69,374.63c11.6-6.7,21.66-12.1,30.19-16.22,8.53-4.12,16.57-6.88,24.13-8.28,10.83-2.13,18.89-.71,24.16,4.26,5.28,4.97,7.93,12.47,7.96,22.48,.03,11.45-2.7,22.84-8.21,34.17-5.51,11.34-11.13,20.72-16.89,28.16v.81l54.05,48.49-44.51,25.7c-2.89-3.17-36.22-33.02-53.56-49.18l.58-3.02c2.57-2.11,5.95-5.59,10.15-10.43,4.2-4.84,7.7-9.64,10.49-14.39,2.87-4.97,5.04-9.72,6.51-14.24,1.47-4.52,2.2-9.64,2.18-15.37-.02-5.46-1.26-9.62-3.72-12.5-2.46-2.88-5.84-4.11-10.13-3.69-3.51,.32-7.13,1.36-10.87,3.11-3.74,1.76-7.36,3.64-10.86,5.67l-4.79,2.76-2.21,1.28c-.05,10.69,.44,140.28,.53,147.93l-38.65,22.31c.06-7.11-.2-155.2-.51-179.67,2.26-1.3,6.95-4.1,14.07-8.39,7.13-4.29,13.76-8.21,19.91-11.77Z"/><g class="cls-26"><g class="cls-17"><g class="cls-26"><path class="cls-4" d="M344.23,574.45l-29.59-17.2c.06-7.11-.2-155.2-.51-179.67l29.59,17.2c.31,24.47,.56,172.56,.51,179.67"/></g></g><path class="cls-4" d="M344.23,574.45l-29.59-17.2c.06-7.11-.2-155.2-.51-179.67l29.59,17.2c.31,24.47,.56,172.56,.51,179.67Z"/></g><g class="cls-26"><path class="cls-4" d="M452.72,351.86c-.23-.13-.46-.25-.7-.37-.1-.06-.19-.1-.29-.15-.29-.14-.6-.28-.91-.4h-.02c-.34-.15-.7-.29-1.05-.41-.37-.13-.74-.25-1.12-.36-.4-.12-.82-.23-1.24-.32-.42-.1-.85-.18-1.28-.26-.29-.05-.58-.09-.87-.13-.26-.04-.53-.08-.81-.1-.27-.03-.55-.06-.83-.08-.16-.02-.33-.03-.5-.04-.12,0-.23-.02-.34-.02-.29-.02-.57-.03-.86-.03-.82-.03-1.66-.02-2.53,.03-.13,0-.27,0-.41,.03-.03,0-.08,0-.12,0-.34,0-.68,.03-1.02,.07-.37,.03-.74,.06-1.12,.11-.74,.07-1.49,.17-2.27,.29,0,0-.02,0-.03,0-.78,.12-1.58,.26-2.39,.42-1.49,.28-3,.6-4.53,.99-.49,.12-.97,.24-1.46,.38-1.89,.51-3.81,1.1-5.75,1.77-.97,.34-1.96,.69-2.95,1.07-.5,.18-.99,.38-1.49,.58-.46,.18-.93,.36-1.39,.56-.03,0-.08,.03-.11,.04-2.12,.87-4.27,1.84-6.45,2.89-8.3,4.01-18.04,9.22-29.23,15.67-.32,.18-.63,.37-.96,.55-5.97,3.46-13.15,7.69-19.91,11.77-7.12,4.29-11.81,7.08-14.07,8.39l-29.6-17.2c2.26-1.31,6.95-4.1,14.07-8.39,6.7-4.03,13.97-8.31,19.92-11.76,.38-.23,.75-.45,1.12-.66,11.13-6.41,20.81-11.59,29.07-15.58,2.18-1.05,4.33-2.02,6.45-2.89,.03-.02,.08-.03,.11-.04,.46-.19,.93-.39,1.39-.56,2.18-.87,4.32-1.64,6.42-2.31,.79-.25,1.57-.49,2.34-.71,.48-.13,.96-.27,1.43-.39,.64-.17,1.27-.34,1.9-.49,.87-.21,1.74-.41,2.6-.6,.5-.1,.99-.19,1.48-.29,.81-.16,1.61-.3,2.39-.42,0,0,.02,0,.03,0,.77-.11,1.52-.21,2.26-.29,.38-.04,.75-.08,1.12-.11,.34-.03,.69-.05,1.02-.07,.04,0,.08,0,.12,0,.14,0,.29-.02,.42-.02,.87-.04,1.7-.05,2.52-.03,.29,0,.57,.03,.86,.03,.12,0,.24,.02,.36,.03,.16,0,.32,.02,.48,.03,.28,.02,.55,.05,.83,.08,.27,.03,.54,.06,.81,.1,.29,.04,.59,.08,.87,.13,.44,.08,.86,.16,1.28,.26,.42,.09,.83,.2,1.24,.32,.38,.11,.75,.23,1.12,.36,.36,.13,.72,.27,1.07,.41,.31,.13,.61,.26,.91,.4,.1,.05,.19,.09,.29,.15,.24,.12,.47,.24,.7,.37l.05,.03,.21,.12,29.33,17.06Z"/></g></g><g><g class="cls-26"><g class="cls-20"><g class="cls-26"><path class="cls-9" d="M478.45,531.77l-29.59-17.2c-2.89-3.17-36.22-33.02-53.56-49.18l29.59,17.2c17.34,16.16,50.67,46.01,53.56,49.18"/></g></g></g><polygon class="cls-7" points="424.88 482.59 395.29 465.39 395.87 462.37 425.46 479.57 424.88 482.59"/><path class="cls-11" d="M454.79,425.14v.24c0,.5,0,1-.02,1.49,0,.18,0,.37-.02,.55-.02,.57-.04,1.13-.08,1.68-.03,.54-.07,1.07-.12,1.6l-.08,.73c-.03,.36-.08,.72-.13,1.07,0,.04,0,.09-.02,.13v.04c-.05,.4-.11,.81-.18,1.22-.03,.23-.07,.45-.11,.67-.05,.32-.11,.64-.18,.95-.06,.31-.12,.61-.18,.91h0v.02c-.18,.82-.38,1.65-.6,2.44,0,.02,0,.03-.02,.04-.14,.54-.3,1.06-.47,1.57-.33,1-.68,2.01-1.07,3.02-.08,.2-.15,.39-.24,.6-.18,.46-.37,.92-.56,1.39-.04,.1-.08,.21-.13,.31-.18,.42-.37,.85-.57,1.28-.26,.6-.54,1.19-.83,1.8-.42,.87-.86,1.75-1.34,2.63-.04,.1-.1,.21-.17,.32h0c-.5,.97-1.04,1.93-1.6,2.91-.03,.05-.07,.11-.1,.17h0c-.3,.52-.61,1.03-.93,1.55-.18,.28-.34,.55-.52,.82-.04,.07-.08,.13-.13,.2-.29,.46-.6,.93-.92,1.39-.34,.5-.68,1.01-1.03,1.51-.02,.03-.04,.06-.06,.08-.89,1.27-1.82,2.54-2.81,3.81-1.25,1.61-2.57,3.22-3.97,4.85-.07,.07-.13,.13-.18,.21-.98,1.13-1.92,2.18-2.81,3.17-.44,.48-.86,.94-1.28,1.39-.37,.39-.72,.76-1.07,1.13-.26,.27-.51,.53-.76,.78-.07,.07-.13,.13-.19,.2-.18,.18-.37,.36-.55,.54-.02,.02-.04,.04-.06,.07-1.18,1.17-2.27,2.16-3.23,2.95l-29.6-17.2c.97-.79,2.05-1.77,3.23-2.95l.6-.6c.06-.07,.13-.13,.19-.2,.25-.25,.51-.51,.76-.78,.35-.37,.71-.74,1.07-1.13,.42-.45,.85-.91,1.28-1.39,.89-.98,1.83-2.03,2.81-3.17,.06-.07,.12-.14,.18-.21,1.4-1.62,2.72-3.23,3.97-4.85,.99-1.28,1.92-2.54,2.81-3.81,.02-.03,.04-.06,.06-.08,.35-.5,.71-1.01,1.03-1.51,.27-.39,.53-.79,.78-1.18,.09-.13,.18-.27,.27-.4,.16-.25,.32-.51,.48-.76,.34-.54,.66-1.07,.98-1.6h0c.03-.07,.07-.13,.1-.18,.56-.97,1.1-1.95,1.6-2.91,0,0,0,0,0,0,.27-.5,.52-.99,.76-1.48,.25-.5,.5-.98,.73-1.47,.29-.6,.57-1.2,.83-1.8,.15-.32,.29-.64,.43-.95,.05-.11,.09-.22,.14-.33,.04-.1,.08-.21,.13-.31,.2-.46,.39-.92,.56-1.39,.08-.2,.16-.39,.24-.6,.34-.87,.65-1.73,.93-2.58,.05-.15,.1-.29,.14-.45,.18-.52,.34-1.06,.49-1.6v-.02c.13-.47,.25-.96,.37-1.44,.08-.34,.16-.67,.24-1.02v-.02c.08-.39,.17-.78,.24-1.18,.06-.29,.11-.6,.17-.9,0-.03,0-.05,0-.08,.05-.29,.09-.6,.13-.89,.03-.23,.07-.45,.09-.67,0,0,0-.03,0-.03,0-.05,0-.09,0-.14,.05-.35,.09-.71,.13-1.07l.08-.73c.05-.53,.08-1.06,.12-1.6,.04-.55,.07-1.12,.08-1.68,0-.18,0-.38,.02-.56,0-.49,.02-.98,.02-1.49v-.24c-.02-5.46-1.26-9.62-3.72-12.5-.81-.96-1.74-1.73-2.75-2.32l29.6,17.2c1.02,.59,1.94,1.36,2.75,2.32,2.46,2.88,3.7,7.05,3.72,12.5Z"/><path class="cls-8" d="M407.56,392.19c11.6-6.7,21.66-12.1,30.19-16.22,8.53-4.12,16.57-6.88,24.13-8.28,10.83-2.13,18.89-.71,24.16,4.26,5.28,4.97,7.93,12.47,7.96,22.48,.03,11.45-2.7,22.84-8.21,34.17-5.51,11.34-11.13,20.72-16.89,28.16v.81l54.05,48.49-44.51,25.7c-2.89-3.17-36.22-33.02-53.56-49.18l.58-3.02c2.57-2.11,5.95-5.59,10.15-10.43,4.2-4.84,7.7-9.64,10.49-14.39,2.87-4.97,5.04-9.72,6.51-14.24,1.47-4.52,2.2-9.64,2.18-15.37s-1.26-9.62-3.72-12.5c-2.46-2.88-5.84-4.11-10.13-3.69-3.51,.32-7.13,1.36-10.87,3.11-3.74,1.76-7.36,3.64-10.86,5.67l-4.79,2.76-2.21,1.28c-.05,10.69,.44,140.28,.53,147.93l-38.65,22.31c.06-7.11-.2-155.2-.51-179.67,2.26-1.3,6.95-4.1,14.07-8.39,7.13-4.29,13.76-8.21,19.91-11.77Z"/><g class="cls-26"><g class="cls-19"><g class="cls-26"><path class="cls-9" d="M374.09,592.01l-29.59-17.2c.06-7.11-.2-155.2-.51-179.67l29.59,17.2c.31,24.47,.56,172.56,.51,179.67"/></g></g></g><g class="cls-26"><path class="cls-13" d="M482.58,369.42c-.23-.13-.46-.25-.7-.37-.1-.06-.19-.1-.29-.15-.29-.14-.6-.28-.91-.4h-.02c-.34-.15-.7-.29-1.05-.41-.37-.13-.74-.25-1.12-.36-.4-.12-.82-.23-1.24-.32-.42-.1-.85-.18-1.28-.26-.29-.05-.58-.09-.87-.13-.26-.04-.53-.08-.81-.1-.27-.03-.55-.06-.83-.08-.16-.02-.33-.03-.5-.04-.12,0-.23-.02-.34-.02-.29-.02-.57-.03-.86-.03-.82-.03-1.66-.02-2.53,.03-.13,0-.27,0-.41,.03-.03,0-.08,0-.12,0-.34,0-.68,.03-1.02,.07-.37,.03-.74,.06-1.12,.11-.74,.07-1.49,.17-2.27,.29,0,0-.02,0-.03,0-.78,.12-1.58,.26-2.39,.42-1.49,.28-3,.6-4.53,.99-.49,.12-.97,.24-1.46,.38-1.89,.51-3.81,1.1-5.75,1.77-.97,.34-1.96,.69-2.95,1.07-.5,.18-.99,.38-1.49,.58-.46,.18-.93,.36-1.39,.56-.03,0-.08,.03-.11,.04-2.12,.87-4.27,1.84-6.45,2.89-8.3,4.01-18.04,9.22-29.23,15.67-.32,.18-.63,.37-.96,.55-5.97,3.46-13.15,7.69-19.91,11.77-7.12,4.29-11.81,7.08-14.07,8.39l-29.6-17.2c2.26-1.31,6.95-4.1,14.07-8.39,6.7-4.03,13.97-8.31,19.92-11.76,.38-.23,.75-.45,1.12-.66,11.13-6.41,20.81-11.59,29.07-15.58,2.18-1.05,4.33-2.02,6.45-2.89,.03-.02,.08-.03,.11-.04,.46-.19,.93-.39,1.39-.56,2.18-.87,4.32-1.64,6.42-2.31,.79-.25,1.57-.49,2.34-.71,.48-.13,.96-.27,1.43-.39,.64-.17,1.27-.34,1.9-.49,.87-.21,1.74-.41,2.6-.6,.5-.1,.99-.19,1.48-.29,.81-.16,1.61-.3,2.39-.42,0,0,.02,0,.03,0,.77-.11,1.52-.21,2.26-.29,.38-.04,.75-.08,1.12-.11,.34-.03,.69-.05,1.02-.07,.04,0,.08,0,.12,0,.14,0,.29-.02,.42-.02,.87-.04,1.7-.05,2.52-.03,.29,0,.57,.03,.86,.03,.12,0,.24,.02,.36,.03,.16,0,.32,.02,.48,.03,.28,.02,.55,.05,.83,.08,.27,.03,.54,.06,.81,.1,.29,.04,.59,.08,.87,.13,.44,.08,.86,.16,1.28,.26,.42,.09,.83,.2,1.24,.32,.38,.11,.75,.23,1.12,.36,.36,.13,.72,.27,1.07,.41,.31,.13,.61,.26,.91,.4,.1,.05,.19,.09,.29,.15,.24,.12,.47,.24,.7,.37l.05,.03,.21,.12,29.33,17.06Z"/></g></g><g><g class="cls-26"><g class="cls-18"><g class="cls-26"><path class="cls-4" d="M508.25,549.33l-29.59-17.2c-2.89-3.17-36.22-33.02-53.56-49.18l29.59,17.2c17.34,16.16,50.67,46.01,53.56,49.18"/></g></g><path class="cls-4" d="M508.25,549.33l-29.59-17.2c-2.89-3.17-36.22-33.02-53.56-49.18l29.59,17.2c17.34,16.16,50.67,46.01,53.56,49.18Z"/></g><polygon class="cls-4" points="454.68 500.15 425.09 482.95 425.67 479.93 455.26 497.13 454.68 500.15"/><path class="cls-4" d="M484.59,442.7v.24c0,.5,0,1-.02,1.49,0,.18,0,.37-.02,.55-.02,.57-.04,1.13-.08,1.68-.03,.54-.07,1.07-.12,1.6l-.08,.73c-.03,.36-.08,.72-.13,1.07,0,.04,0,.09-.02,.13v.04c-.05,.4-.11,.81-.18,1.22-.03,.23-.07,.45-.11,.67-.05,.32-.11,.64-.18,.95-.06,.31-.12,.61-.18,.91h0v.02c-.18,.82-.38,1.65-.6,2.44,0,.02,0,.03-.02,.04-.14,.54-.3,1.06-.47,1.57-.33,1-.68,2.01-1.07,3.02-.08,.2-.15,.39-.24,.6-.18,.46-.37,.92-.56,1.39-.04,.1-.08,.21-.13,.31-.18,.42-.37,.85-.57,1.28-.26,.6-.54,1.19-.83,1.8-.42,.87-.86,1.75-1.34,2.63-.04,.1-.1,.21-.17,.32h0c-.5,.97-1.04,1.93-1.6,2.91-.03,.05-.07,.11-.1,.17h0c-.3,.52-.61,1.03-.93,1.55-.18,.28-.34,.55-.52,.82-.04,.07-.08,.13-.13,.2-.29,.46-.6,.93-.92,1.39-.34,.5-.68,1.01-1.03,1.51-.02,.03-.04,.06-.06,.08-.89,1.27-1.82,2.54-2.81,3.81-1.25,1.61-2.57,3.22-3.97,4.85-.07,.07-.13,.13-.18,.21-.98,1.13-1.92,2.18-2.81,3.17-.44,.48-.86,.94-1.28,1.39-.37,.39-.72,.76-1.07,1.13-.26,.27-.51,.53-.76,.78-.07,.07-.13,.13-.19,.2-.18,.18-.37,.36-.55,.54-.02,.02-.04,.04-.06,.07-1.18,1.17-2.27,2.16-3.23,2.95l-29.6-17.2c.97-.79,2.05-1.77,3.23-2.95l.6-.6c.06-.07,.13-.13,.19-.2,.25-.25,.51-.51,.76-.78,.35-.37,.71-.74,1.07-1.13,.42-.45,.85-.91,1.28-1.39,.89-.98,1.83-2.03,2.81-3.17,.06-.07,.12-.14,.18-.21,1.4-1.62,2.72-3.23,3.97-4.85,.99-1.28,1.92-2.54,2.81-3.81,.02-.03,.04-.06,.06-.08,.35-.5,.71-1.01,1.03-1.51,.27-.39,.53-.79,.78-1.18,.09-.13,.18-.27,.27-.4,.16-.25,.32-.51,.48-.76,.34-.54,.66-1.07,.98-1.6h0c.03-.07,.07-.13,.1-.18,.56-.97,1.1-1.95,1.6-2.91,0,0,0,0,0,0,.27-.5,.52-.99,.76-1.48,.25-.5,.5-.98,.73-1.47,.29-.6,.57-1.2,.83-1.8,.15-.32,.29-.64,.43-.95,.05-.11,.09-.22,.14-.33,.04-.1,.08-.21,.13-.31,.2-.46,.39-.92,.56-1.39,.08-.2,.16-.39,.24-.6,.34-.87,.65-1.73,.93-2.58,.05-.15,.1-.29,.14-.45,.18-.52,.34-1.06,.49-1.6v-.02c.13-.47,.25-.96,.37-1.44,.08-.34,.16-.67,.24-1.02v-.02c.08-.39,.17-.78,.24-1.18,.06-.29,.11-.6,.17-.9,0-.03,0-.05,0-.08,.05-.29,.09-.6,.13-.89,.03-.23,.07-.45,.09-.67,0,0,0-.03,0-.03,0-.05,0-.09,0-.14,.05-.35,.09-.71,.13-1.07l.08-.73c.05-.53,.08-1.06,.12-1.6,.04-.55,.07-1.12,.08-1.68,0-.18,0-.38,.02-.56,0-.49,.02-.98,.02-1.49v-.24c-.02-5.46-1.26-9.62-3.72-12.5-.81-.96-1.74-1.73-2.75-2.32l29.6,17.2c1.02,.59,1.94,1.36,2.75,2.32,2.46,2.88,3.7,7.05,3.72,12.5Z"/><path class="cls-4" d="M437.36,409.76c11.6-6.7,21.66-12.1,30.19-16.22,8.53-4.12,16.57-6.88,24.13-8.28,10.83-2.13,18.89-.71,24.16,4.26,5.28,4.97,7.93,12.47,7.96,22.48,.03,11.45-2.7,22.84-8.21,34.17-5.51,11.34-11.13,20.72-16.89,28.16v.81l54.05,48.49-44.51,25.7c-2.89-3.17-36.22-33.02-53.56-49.18l.58-3.02c2.57-2.11,5.95-5.59,10.15-10.43,4.2-4.84,7.7-9.64,10.49-14.39,2.87-4.97,5.04-9.72,6.51-14.24,1.47-4.52,2.2-9.64,2.18-15.37s-1.26-9.62-3.72-12.5c-2.46-2.88-5.84-4.11-10.13-3.69-3.51,.32-7.13,1.36-10.87,3.11-3.74,1.76-7.36,3.64-10.86,5.67l-4.79,2.76-2.21,1.28c-.05,10.69,.44,140.28,.53,147.93l-38.65,22.31c.06-7.11-.2-155.2-.51-179.67,2.26-1.3,6.95-4.1,14.07-8.39,7.13-4.29,13.76-8.21,19.91-11.77Z"/><g class="cls-26"><g class="cls-21"><g class="cls-26"><path class="cls-4" d="M403.89,609.58l-29.59-17.2c.06-7.11-.2-155.2-.51-179.67l29.59,17.2c.31,24.47,.56,172.56,.51,179.67"/></g></g><path class="cls-4" d="M403.89,609.58l-29.59-17.2c.06-7.11-.2-155.2-.51-179.67l29.59,17.2c.31,24.47,.56,172.56,.51,179.67Z"/></g><g class="cls-26"><path class="cls-4" d="M512.38,386.98c-.23-.13-.46-.25-.7-.37-.1-.06-.19-.1-.29-.15-.29-.14-.6-.28-.91-.4h-.02c-.34-.15-.7-.29-1.05-.41-.37-.13-.74-.25-1.12-.36-.4-.12-.82-.23-1.24-.32-.42-.1-.85-.18-1.28-.26-.29-.05-.58-.09-.87-.13-.26-.04-.53-.08-.81-.1-.27-.03-.55-.06-.83-.08-.16-.02-.33-.03-.5-.04-.12,0-.23-.02-.34-.02-.29-.02-.57-.03-.86-.03-.82-.03-1.66-.02-2.53,.03-.13,0-.27,0-.41,.03-.03,0-.08,0-.12,0-.34,0-.68,.03-1.02,.07-.37,.03-.74,.06-1.12,.11-.74,.07-1.49,.17-2.27,.29,0,0-.02,0-.03,0-.78,.12-1.58,.26-2.39,.42-1.49,.28-3,.6-4.53,.99-.49,.12-.97,.24-1.46,.38-1.89,.51-3.81,1.1-5.75,1.77-.97,.34-1.96,.69-2.95,1.07-.5,.18-.99,.38-1.49,.58-.46,.18-.93,.36-1.39,.56-.03,0-.08,.03-.11,.04-2.12,.87-4.27,1.84-6.45,2.89-8.3,4.01-18.04,9.22-29.23,15.67-.32,.18-.63,.37-.96,.55-5.97,3.46-13.15,7.69-19.91,11.77-7.12,4.29-11.81,7.08-14.07,8.39l-29.6-17.2c2.26-1.31,6.95-4.1,14.07-8.39,6.7-4.03,13.97-8.31,19.92-11.76,.38-.23,.75-.45,1.12-.66,11.13-6.41,20.81-11.59,29.07-15.58,2.18-1.05,4.33-2.02,6.45-2.89,.03-.02,.08-.03,.11-.04,.46-.19,.93-.39,1.39-.56,2.18-.87,4.32-1.64,6.42-2.31,.79-.25,1.57-.49,2.34-.71,.48-.13,.96-.27,1.43-.39,.64-.17,1.27-.34,1.9-.49,.87-.21,1.74-.41,2.6-.6,.5-.1,.99-.19,1.48-.29,.81-.16,1.61-.3,2.39-.42,0,0,.02,0,.03,0,.77-.11,1.52-.21,2.26-.29,.38-.04,.75-.08,1.12-.11,.34-.03,.69-.05,1.02-.07,.04,0,.08,0,.12,0,.14,0,.29-.02,.42-.02,.87-.04,1.7-.05,2.52-.03,.29,0,.57,.03,.86,.03,.12,0,.24,.02,.36,.03,.16,0,.32,.02,.48,.03,.28,.02,.55,.05,.83,.08,.27,.03,.54,.06,.81,.1,.29,.04,.59,.08,.87,.13,.44,.08,.86,.16,1.28,.26,.42,.09,.83,.2,1.24,.32,.38,.11,.75,.23,1.12,.36,.36,.13,.72,.27,1.07,.41,.31,.13,.61,.26,.91,.4,.1,.05,.19,.09,.29,.15,.24,.12,.47,.24,.7,.37l.05,.03,.21,.12,29.33,17.06Z"/></g></g></g><g id="I"><g><polygon class="cls-4" points="307.9 416.07 308.41 595.74 269.76 618.05 269.25 438.38 307.9 416.07"/><polygon class="cls-4" points="269.76 618.05 240.17 600.85 239.66 421.18 269.25 438.38 269.76 618.05"/><polygon class="cls-4" points="269.25 438.38 239.66 421.18 278.31 398.87 307.9 416.07 269.25 438.38"/></g><g><polygon class="cls-8" points="337.72 432.98 338.23 612.65 299.58 634.97 299.07 455.3 337.72 432.98"/><polygon class="cls-12" points="299.58 634.97 269.98 617.77 269.47 438.1 299.07 455.3 299.58 634.97"/><polygon class="cls-14" points="299.07 455.3 269.47 438.1 308.12 415.79 337.72 432.98 299.07 455.3"/></g><g><polygon class="cls-4" points="367.31 450.66 367.82 630.32 329.17 652.64 328.66 472.97 367.31 450.66"/><polygon class="cls-4" points="329.17 652.64 299.58 635.44 299.07 455.77 328.66 472.97 329.17 652.64"/><polygon class="cls-4" points="328.66 472.97 299.07 455.77 337.72 433.46 367.31 450.66 328.66 472.97"/></g></g><g><path class="cls-23" d="M180.24,264.31c-4.06,0-7.35,2-7.35,4.46s3.29,4.46,7.35,4.46,7.35-1.99,7.35-4.46-3.29-4.46-7.35-4.46Z"/><path class="cls-22" d="M180.24,264.18c-4.18,0-7.57,2.06-7.57,4.59s3.39,4.59,7.57,4.59,7.57-2.05,7.57-4.59-3.39-4.59-7.57-4.59Zm-.03,8.23c-3.65,0-6.61-1.7-6.61-3.79s2.96-3.79,6.61-3.79,6.61,1.7,6.61,3.79-2.96,3.79-6.61,3.79Z"/></g><polyline class="cls-3" points="176.68 268.12 131.52 426.56 143.7 453.55"/><g id="A"><g><path class="cls-2" d="M138.29,560.83l41.31-23.72-20.54-50.8-.47,.29-20.31,74.23"/><polygon class="cls-2" points="72.11 676.45 42.52 659.25 110.78 438.54 140.38 455.74 72.11 676.45"/><polygon class="cls-2" points="140.38 455.74 110.78 438.54 150.37 415.68 179.97 432.88 140.38 455.74"/></g><g class="cls-26"><polygon class="cls-16" points="234.93 616.96 205.34 599.77 188.99 559.75 218.58 576.95 234.93 616.96"/><polygon class="cls-15" points="168.15 578.11 138.56 560.91 179.87 537.19 209.46 554.39 168.15 578.11"/><polygon class="cls-16" points="209.46 554.39 179.87 537.19 159.33 486.39 188.92 503.59 209.46 554.39"/><path class="cls-8" d="M209.82,450.16l68.39,141.82-43.28,24.99-16.35-40.02-59.44,34.32-16.23,58.83-40.94,23.64,68.26-220.71,39.59-22.86Zm-41.67,127.95l41.31-23.72-20.54-50.8-.47,.29-20.31,74.23"/><polygon class="cls-10" points="101.97 693.73 72.38 676.53 140.64 455.82 170.24 473.01 101.97 693.73"/><polygon class="cls-14" points="170.24 473.01 140.64 455.82 180.23 432.96 209.82 450.16 170.24 473.01"/></g><g><polygon class="cls-2" points="264.48 634.27 234.89 617.07 218.54 577.06 248.13 594.26 264.48 634.27"/><polygon class="cls-2" points="197.7 595.42 168.11 578.22 209.42 554.5 239.01 571.7 197.7 595.42"/><polygon class="cls-2" points="239.01 571.7 209.42 554.5 188.88 503.7 218.47 520.9 239.01 571.7"/><path class="cls-2" d="M239.37,467.47l68.39,141.82-43.28,24.99-16.35-40.02-59.44,34.32-16.23,58.83-40.94,23.64,68.26-220.71,39.59-22.86Zm-41.67,127.95l41.31-23.72-20.54-50.8-.47,.29-20.31,74.23"/><polygon class="cls-2" points="131.52 711.04 101.93 693.84 170.19 473.12 199.79 490.32 131.52 711.04"/><polygon class="cls-2" points="199.79 490.32 170.19 473.12 209.78 450.27 239.37 467.47 199.79 490.32"/></g></g><g><path class="cls-25" d="M192.66,246.41c-8.99,3.59-8.86,21.71-8.86,21.71,0,1.19-1.59,2.16-3.56,2.16s-3.56-.97-3.56-2.16c0,0,.14-18.12-8.85-21.71-4.49-1.8-1.39-3.55,2.83-4.85,6.23-1.92,12.92-1.92,19.15,0,4.23,1.3,7.34,3.06,2.84,4.86Z"/><ellipse class="cls-24" cx="179.97" cy="186.18" rx="53.16" ry="62"/></g><path class="cls-3" d="M176.68,268.12c.17,2.99,7.08,2.7,7.12,0,0,0,36.3,188.15,35.85,209.16s-1.17,43.61-1.17,43.61"/></svg>