<?xml version="1.0" encoding="UTF-8"?><svg id="Ebene_1" xmlns="http://www.w3.org/2000/svg" viewBox="0 0 566.93 566.93"><defs><style>.cls-1{fill:none;}.cls-2{fill:#f2eae9;}.cls-3{fill:#edf0f7;}.cls-4{fill:#fff6fd;}.cls-5{fill:#bfbfbf;}.cls-6{fill:#e1f9f2;}.cls-7,.cls-8{fill:#e1e7f9;}.cls-9{fill:#a2d1e5;}.cls-8{font-family:Exo2-Regular, 'Exo 2';font-size:66px;font-variation-settings:'wght' 400;}.cls-10{letter-spacing:-.02em;}</style></defs><polygon class="cls-4" points="574.73 -8.5 574.73 365.5 -8.5 364.28 -8.5 -8.5 574.73 -8.5"/><polygon class="cls-2" points="574.73 351.43 574.73 574.73 -8.5 574.73 -8.5 350.35 574.73 351.43"/><path class="cls-5" d="M527.01,396.38c-10.17,10.75-29.44,26.39-61.8,38.97-.27,.09-.54,.19-.81,.28,.27-.09,.54-.19,.81-.29-2.33-22.82-65.3-53.93-231.3-6.92,18.41,5.05,34.61,28.19,34.77,28.68-6.23-7.34-34.02-23.65-46.32-25.42-7.05,2.14-14.28,4.41-21.7,6.83-39.84,12.98-65.94,27.21-82.9,37.54-22.9,13.95-25.41,23.72-25.41,23.72,.1,0,.19,.01,.29,.01,.28,.01,.58,.02,.88,.03-.39,0-.78,0-1.17,0-.03,.18-.05,.35-.05,.53,0,.02,0,.03,0,.05,0,.01,0,.01,0,.03,.39,10.93,23.77,15.72,52.45,17.88,11.81,.89,24.52,1.33,36.88,1.58,.09,.01,.19,.01,.28,.01l19.95-.23c9.64-7.18,14.76-17.99,16.38-25.28,0-.21,0-.4-.02-.6-.01-.3-.03-.6-.05-.89-.03-.5-.06-.99-.1-1.44,.22-.03,.44-.05,.67-.08-.04,.47-.11,.96-.2,1.48-.04,.29-.1,.6-.17,.91-.03,.2-.08,.41-.13,.62,.21,6.6-.47,16.32-2.29,25.88,6.44,.02,15.24-.17,23.81-.6,1.33-.06,2.69-.13,4.07-.21,6.94-.39,14.41-.91,22.28-1.56,.7-.06,1.41-.12,2.12-.18,9.58-.83,14.02-1.2,24.48-2.42,4-6.38,7.22-13.7,9.25-20.61-.71,6.72-1.87,13.79-3.54,19.96,.48-.05,.95-.1,1.43-.16,9.24-1.08,18.71-2.32,28.24-3.7l.6-.09c12.5-1.83,25.1-3.9,37.4-6.23,2.44-.46,4.87-.93,7.29-1.41,11.15-2.23,22-4.66,32.23-7.3,.15-.04,.29-.07,.43-.11,11.63-3.01,22.45-6.28,32.06-9.83,0,0,0-.01,0-.01,.43-.15,.72-.25,.77-.27,5.66-2.11,10.88-4.31,15.59-6.6h.01c.54-.26,1.07-.53,1.59-.79,23.11-11.66,35.46-27.37,19.53-43.61,31.09-13.92,43.45-24.9,53.72-36.65,11.05-12.67,7.85-12.25-2.31-1.49ZM94.39,499.83c2.44,.02,4.87,.04,7.3,.04-2.74,.02-5.23,.01-7.3-.04Zm278.24-42.74c.3-.06,.61-.13,.92-.19-.31,.07-.61,.13-.92,.2h0Z"/><polygon class="cls-7" points="91.66 350.53 -8.5 413.26 -8.5 -8.5 91.66 -8.5 91.66 350.53"/><path class="cls-3" d="M91.36,367.88c-.03,.17-.04,.34-.03,.51-.01-.17-.01-.34,0-.51h.04Z"/><path class="cls-3" d="M91.33,368.49h-.01v-.03s0,.02,.01,.03Z"/><path class="cls-9" d="M84.95,496.99c-.03,.18-.05,.35-.05,.53,0-.17,0-.35,0-.53h.05Z"/><path class="cls-9" d="M94.29,497.06c-2.74,.02-5.23,.01-7.3-.04,2.44,.02,4.87,.04,7.3,.04Z"/><path class="cls-9" d="M211.34,488.55c-.04,.47-.11,.96-.2,1.48-.04,.29-.1,.6-.17,.91-.03,.2-.08,.41-.13,.62,0-.21,0-.4-.02-.6-.01-.3-.03-.6-.05-.89-.03-.5-.06-.99-.1-1.44,.22-.03,.44-.05,.67-.08Z"/><path class="cls-6" d="M208.55,517.44c-.39,0-1.12-5.62,0,0h0Z"/><path class="cls-6" d="M211.34,488.55c-.04,.47-.11,.96-.2,1.48-.04,.29-.1,.6-.17,.91-.03,.2-.08,.41-.13,.62,0-.21,0-.4-.02-.6-.01-.3-.03-.6-.05-.89-.03-.5-.06-.99-.1-1.44,.22-.03,.44-.05,.67-.08Z"/><path class="cls-9" d="M366.15,454.09c-.31,.07-.61,.13-.92,.2h0c.3-.07,.61-.14,.92-.2Z"/><path class="cls-6" d="M430.71,482.98h0s0,0,0,0Z"/><path class="cls-7" d="M94.29,497.06c-2.74,.02-5.23,.01-7.3-.04,2.44,.02,4.87,.04,7.3,.04Z"/><path class="cls-7" d="M211.34,488.55c-.04,.47-.11,.96-.2,1.48-.12,.01-.24,.02-.37,.04-.03-.5-.06-.99-.1-1.44,.22-.03,.44-.05,.67-.08Z"/><path class="cls-7" d="M366.15,454.09c-.31,.07-.61,.13-.92,.2h0c.3-.07,.61-.14,.92-.2Z"/><path class="cls-5" d="M84.9,497.6h0v-.03s0,.01,0,.03Z"/><path class="cls-5" d="M86.12,497c-.39,0-.78,0-1.17,0v-.02h.29c.28,.01,.58,.02,.88,.03Z"/><path class="cls-5" d="M94.29,497.06c-2.74,.02-5.23,.01-7.3-.04,2.44,.02,4.87,.04,7.3,.04Z"/><path class="cls-5" d="M211.34,488.55c-.04,.47-.11,.96-.2,1.48-.04,.29-.1,.6-.17,.91-.05,.01-.1,.01-.15,.02-.01-.3-.03-.6-.05-.89-.03-.5-.06-.99-.1-1.44,.22-.03,.44-.05,.67-.08Z"/><line class="cls-1" x1="29.69" y1="409.26" x2="7.74" y2="409.22"/><g><path class="cls-9" d="M99.16,443.41c-29.2-2.2-52.92-7.13-52.45-18.49,6.81,.09,13.61,.1,20.39,.04,11.03-.1,26.78-.67,32.13-.87,1.07,2.51,1.17,10.49-.07,19.32Z"/><path class="cls-6" d="M136.04,444.99c-12.36-.25-25.07-.69-36.88-1.58,1.24-8.83,1.14-16.81,.07-19.32,.93-.04,1.55-.07,1.77-.08,4.3-.2,16.74-1.91,36.04-5.09,1.07,4.48,.89,15.04-1,26.07Z"/><path class="cls-9" d="M156.27,444.77c13.49-10.04,18.12-27.19,16.74-31.88-13.29,2.38-26.1,4.4-35.97,6.03,1.07,4.48,.89,15.04-1,26.07,.09,.01,.19,.01,.28,.01l19.95-.23Z"/><path class="cls-6" d="M194.17,444.77c-8.57,.43-17.37,.62-23.81,.6-.39,0-1.11-5.62,0,0,2.61-13.73,2.89-27.79,1.51-32.48,9.21-1.66,19.2-3.5,29.92-5.51,2.02,5.85,.2,25.03-7.62,37.39Z"/><path class="cls-9" d="M220.52,443c-7.87,.65-15.34,1.17-22.28,1.56-1.38,.08-2.74,.15-4.07,.21,3.96-15.2,2.02-31.54,0-37.39,7.23-1.36,22.4-2.8,30.27-4.31,.52,8.11-.5,29.04-3.92,39.93Z"/><path class="cls-6" d="M247.12,440.4c-10.46,1.22-14.9,1.59-24.48,2.42-.71,.06-1.42,.12-2.12,.18,3.42-10.89,4.44-31.82,3.92-39.93,10.3-1.99,21.13-4.12,32.46-6.38,4.95,7.37-.1,28.29-9.78,43.71Z"/><path class="cls-9" d="M283.1,435.8c-.2,.03-.4,.06-.6,.09-9.53,1.38-19,2.62-28.24,3.7-.48,.06-.95,.11-1.43,.16,4.08-15.04,5.09-35.42,4.07-43.06,10.65-2.13,21.74-4.38,33.24-6.75,1.37,7.95-.37,32.47-7.04,45.86Z"/><path class="cls-6" d="M320.5,429.57c-12.3,2.33-24.9,4.4-37.4,6.23,6.67-13.39,8.41-37.91,7.04-45.86,14.99-3.09,30.67-6.38,46.96-9.87,3.7,7.92-.3,34.69-16.6,49.5Z"/><path class="cls-9" d="M360.02,420.86c-10.23,2.64-21.08,5.07-32.23,7.3-2.42,.48-4.85,.95-7.29,1.41,10.56-22.19,10.25-39.44,6.55-47.36,9.63-2.06,26.59-3.99,36.64-6.19,7.98,1.91,2.7,30.57-3.66,44.84Z"/><path class="cls-6" d="M392.52,410.92h-.01c-9.61,3.55-20.43,6.82-32.06,9.83-.14,.04-.28,.07-.43,.11,6.36-14.27,9.11-38.92,4.41-45.92,9.2-2.02,20.77-5.36,30.29-7.49,1.05,6.92,.54,26.34-2.2,43.47Z"/><path class="cls-9" d="M408.89,404.04h-.01c-4.71,2.29-9.93,4.49-15.59,6.6-.26,.1-7.34,2.53-7.6,2.62,13.14-25.18,9.25-36.53,6.67-42.93,6.67-1.49,15.77-5.88,22.58-7.43,14.11,9.1,.61,29.07-6.05,41.15Z"/><path class="cls-6" d="M410.48,403.25c-.52,.26-1.05,.53-1.59,.79,9.47-14.1,14.8-29.93,6.05-41.15,3.63-.82,10.33-3.46,14-4.3l-3.07,1.8,3.07-1.8c17.52,16.61,5.15,32.75-18.46,44.66Z"/><path class="cls-7" d="M419.62,360.47c-77.45,28.09-158.11,45.46-225.69,55.19-20.52,2.95-93.18,8.19-96.54,8.23-3.37,.04-38.46,1.54-50.63,1.01,0,0,2.51-9.77,25.41-23.72,16.96-10.33,43.06-24.56,82.9-37.54,7.42-2.42,14.65-4.69,21.7-6.83,12.3,1.77,31.61,13.68,37.84,21.02-.16-.49-7.88-19.24-26.3-24.29,166-47.01,228.97-15.9,231.3,6.92Z"/><path class="cls-5" d="M483.73,322.99c-11.06,12.67-24.55,24.43-61.28,39.94h0c-19.11,8.37-179.63,61-355.53,62.64-6.72,.06-13.46,.05-20.21-.04,.01-.21,.02-.42,.05-.63,0,0,180.09,2.82,372.86-64.43,32.37-12.57,51.63-28.22,61.8-38.97,10.17-10.75,13.37-11.18,2.31,1.49Z"/><path class="cls-3" d="M129.55,439.94c-.03,.17-.04,.34-.03,.51-.01-.17-.01-.34,0-.51h.04Z"/><path class="cls-3" d="M129.51,440.56h-.01v-.03s0,.02,.01,.03Z"/><path class="cls-3" d="M129.85,439.94h-.3v-.02c.1,0,.2,0,.3,.02Z"/><path class="cls-6" d="M465.84,431.42l-1.1,.64c.44-.26,.8-.47,1.1-.64Z"/><path class="cls-5" d="M465.84,431.42l-1.1,.64c.44-.26,.8-.47,1.1-.64Z"/><line class="cls-1" x1="247.56" y1="441.6" x2="247.55" y2="441.59"/></g><text class="cls-8" transform="translate(169.76 149.16)"><tspan class="cls-10" x="0" y="0">F</tspan><tspan x="34.52" y="0">ederleicht</tspan></text></svg>