<?xml version="1.0" encoding="UTF-8"?><svg id="Ebene_1" xmlns="http://www.w3.org/2000/svg" viewBox="0 0 566.93 566.93"><defs><style>.cls-1{fill:#f3e9e8;}.cls-2{fill:#fff5fd;}.cls-3{fill:#bfb6ff;}.cls-4{fill:#d6f2e9;}.cls-5{fill:#dfe6fa;}.cls-6{fill:#daf9f1;}.cls-7{fill:#e1fff6;}.cls-8{fill:#94d1e7;}.cls-9{fill:#85bdcc;}.cls-10{fill:#61a9bc;}</style></defs><rect class="cls-7" x="70.78" y="-8.5" width="514.68" height="447.59"/><rect class="cls-4" x="-8.5" y="-8.5" width="79.28" height="583.94"/><polygon class="cls-9" points="526.85 657.54 -57.83 657.54 71.45 439.35 521.93 438.42 526.85 657.54"/><polygon class="cls-8" points="574.23 601.92 53.56 601.92 152.43 402.47 569.84 401.58 574.23 601.92"/><path class="cls-10" d="M463.59,401.81l-153.93,.33v77.47h101.29c11.53,0,21.96-6.85,26.54-17.43l26.09-60.36Z"/><rect class="cls-3" x="234.51" y="87.18" width="194.35" height="399.17" rx="29.87" ry="29.87"/><path d="M394.43,482.55h-130.45c-14.8,0-26.79-11.99-26.79-26.79V115.64c0-14.8,11.99-26.79,26.79-26.79h135.43c14.8,0,26.79,11.99,26.79,26.79V450.79c0,17.09-8.07,31.76-31.76,31.76Z"/><path class="cls-6" d="M265.09,477.32s-18.28,0-21.6-19.74c-.1-.62-.3-1.64-.29-3.03,.17-37.33,.29-340.02,.29-340.02-.29-10.9,10.2-19.1,18.61-19.04h30.55s2.22-.68,1.94,2.65,1.39,7.5,1.39,7.5c0,0,2.78,5.28,7.5,5.28h56.11s8.06-.83,8.06-7.22c0-2.4-.17-5.02,.37-6.27,.73-1.67,2.99-1.88,4.82-1.88h23.65s22.83-2.4,22.83,25.37c0,0,.65,326.55,.65,327.19,0,22.52-12.09,28.91-33.28,28.91"/><rect class="cls-5" x="292.91" y="133.84" width="34.6" height="34.6" rx="7.1" ry="7.1"/><rect class="cls-5" x="378.13" y="133.84" width="34.6" height="34.6" rx="7.1" ry="7.1"/><rect class="cls-1" x="335.4" y="133.84" width="34.6" height="34.6" rx="7.1" ry="7.1"/><rect class="cls-8" x="250.41" y="133.84" width="34.6" height="34.6" rx="7.1" ry="7.1"/><rect class="cls-5" x="335.4" y="179.11" width="34.6" height="34.6" rx="7.1" ry="7.1"/><rect class="cls-8" x="378.03" y="179.11" width="34.6" height="34.6" rx="7.1" ry="7.1"/><rect class="cls-1" x="251.08" y="178.41" width="34.6" height="34.6" rx="7.1" ry="7.1"/><rect class="cls-8" x="292.91" y="179.11" width="34.6" height="34.6" rx="7.1" ry="7.1"/><rect class="cls-5" x="292.97" y="224.38" width="34.6" height="34.6" rx="7.1" ry="7.1"/><rect class="cls-2" x="377.96" y="224.38" width="34.6" height="34.6" rx="7.1" ry="7.1"/><rect class="cls-8" x="335.47" y="224.38" width="34.6" height="34.6" rx="7.1" ry="7.1"/><rect class="cls-8" x="250.48" y="224.38" width="34.6" height="34.6" rx="7.1" ry="7.1"/><rect class="cls-5" x="335.47" y="269.65" width="34.6" height="34.6" rx="7.1" ry="7.1"/><rect class="cls-8" x="378.1" y="269.65" width="34.6" height="34.6" rx="7.1" ry="7.1"/><rect class="cls-1" x="251.14" y="268.95" width="34.6" height="34.6" rx="7.1" ry="7.1"/><rect class="cls-8" x="292.97" y="269.65" width="34.6" height="34.6" rx="7.1" ry="7.1"/><rect class="cls-5" x="292.97" y="314.92" width="34.6" height="34.6" rx="7.1" ry="7.1"/><rect class="cls-2" x="378.13" y="314.92" width="34.6" height="34.6" rx="7.1" ry="7.1"/><rect class="cls-1" x="335.64" y="314.92" width="34.6" height="34.6" rx="7.1" ry="7.1"/><rect class="cls-5" x="250.48" y="314.92" width="34.6" height="34.6" rx="7.1" ry="7.1"/><rect class="cls-5" x="335.47" y="360.2" width="34.6" height="34.6" rx="7.1" ry="7.1"/><rect class="cls-1" x="378.1" y="360.2" width="34.6" height="34.6" rx="7.1" ry="7.1"/><rect class="cls-2" x="251.14" y="359.5" width="34.6" height="34.6" rx="7.1" ry="7.1"/><rect class="cls-8" x="292.97" y="360.2" width="34.6" height="34.6" rx="7.1" ry="7.1"/><rect class="cls-5" x="293.14" y="428.13" width="34.6" height="34.6" rx="7.1" ry="7.1"/><rect class="cls-2" x="335.64" y="428.13" width="34.6" height="34.6" rx="7.1" ry="7.1"/><rect class="cls-1" x="378.13" y="428.13" width="34.6" height="34.6" rx="7.1" ry="7.1"/><rect class="cls-8" x="250.65" y="428.13" width="34.6" height="34.6" rx="7.1" ry="7.1"/></svg>