<?xml version="1.0" encoding="UTF-8"?><svg id="Ebene_1" xmlns="http://www.w3.org/2000/svg" viewBox="0 0 221.95 277.8"><defs><style>.cls-1{fill:#e4d1ff;}</style></defs><path class="cls-1" d="M197.95,23.34c-1.34-1.3-2.71-2.55-4.11-3.73-.38-.33-.78-.65-1.17-.96-6.78-5.43-14.35-9.27-22.73-11.53-10.51-2.86-26.04-4.29-46.63-4.29L2.83,2.91V202.23c0,21,7.07,38.4,21.17,52.19,4.05,3.99,8.41,7.33,13.08,10.04,.52,.31,1.04,.6,1.57,.88,4.21,2.27,8.65,4.06,13.36,5.32,10.51,2.86,26.05,4.3,46.64,4.3l115.4-.08h5.07V75.56c0-21.01-7.05-38.42-21.17-52.22ZM39.92,88.71l24.08,25.74-24.08,.02v-25.76Zm52.68,152.02c-35.12,0-52.68-12.67-52.68-38.03v-53.85l56.18-.07,18.65,19.94,67.29,71.94-89.44,.07Zm89.44-50.35l-20.12-21.7-18.68-20.12c14.87-.83,27.8-4.06,38.8-9.72v51.54Zm-51.09-75.96l-19.34,.02L39.92,37.11l89.45-.03c35.1,0,52.67,12.67,52.67,38.03s-17.03,39.31-51.09,39.31Z"/></svg>