<?xml version="1.0" encoding="utf-8"?>
<!-- Generator: Adobe Illustrator 26.3.1, SVG Export Plug-In . SVG Version: 6.00 Build 0)  -->
<svg version="1.1" id="Ebene_1" xmlns="http://www.w3.org/2000/svg" xmlns:xlink="http://www.w3.org/1999/xlink" x="0px" y="0px"
	 viewBox="0 0 122.7 122.2" style="enable-background:new 0 0 122.7 122.2;" xml:space="preserve">
<style type="text/css">
	.st0{fill:#F7D848;}
	.st1{fill:#F7392F;}
	.st2{fill:#F4EAC3;}
	.st3{fill:#4DAB32;}
	.st4{fill:#F44A4A;}
	.st5{fill:#D8C68D;}
</style>
<circle class="st0" cx="61.4" cy="61.1" r="58.1"/>
<path class="st1" d="M61.4,111.3c-6.8,0-13.3-1.3-19.5-3.9c-6-2.5-11.3-6.1-15.9-10.8c-4.6-4.6-8.2-10-10.8-15.9
	c-2.6-6.2-3.9-12.8-3.9-19.5s1.3-13.3,3.9-19.5c2.5-6,6.1-11.3,10.8-15.9c4.6-4.6,10-8.2,15.9-10.8c6.2-2.6,12.8-3.9,19.5-3.9
	s13.3,1.3,19.5,3.9c6,2.5,11.3,6.1,15.9,10.8c4.6,4.6,8.2,10,10.8,15.9c2.6,6.2,3.9,12.8,3.9,19.5s-1.3,13.3-3.9,19.5
	c-2.5,6-6.1,11.3-10.8,15.9c-4.6,4.6-10,8.2-15.9,10.8C74.8,109.9,68.2,111.3,61.4,111.3z"/>
<circle class="st2" cx="52.4" cy="33.7" r="14.9"/>
<circle class="st2" cx="28.3" cy="53" r="11.4"/>
<circle class="st2" cx="58.4" cy="64.1" r="11.1"/>
<circle class="st2" cx="63.2" cy="94.5" r="13.7"/>
<circle class="st2" cx="34.4" cy="80.8" r="13"/>
<path class="st3" d="M33.2,25.9l-0.1,0.3c0,0,0.3,0.1,0.3,0.4c0.5,0.2,2.3,0.2,2.7,0.5s1.8,1.8,2.9,2.5s3.3,1.7,5.9,1.3
	s6.3-2.7,6.7-4.7c-0.5-2-6.1-5.7-8.8-5s-5,1.2-6.3,4.5C36.2,26.4,33.2,25.8,33.2,25.9L33.2,25.9z"/>
<path class="st3" d="M78.9,69.1l0.1-0.4c0,0-0.4,0-0.5-0.3c-0.6-0.1-2.9,0.3-3.5,0s-2.6-1.7-4.3-2.2s-4.5-1.2-7.7-0.2
	s-7.4,4.3-7.4,6.7c1,2.1,8.9,5.1,12.2,3.7s6.1-2.4,7-6.3C75,69.2,78.9,69.1,78.9,69.1z"/>
<path class="st3" d="M40.2,61.7l0.2,0.3c0,0,0.2-0.3,0.6-0.2c0.4-0.4,1.3-2.6,1.9-3s2.8-1.3,4.2-2.3s3.5-3.1,4.4-6.3
	s0.5-8.6-1.5-9.9c-2.3-0.3-9.1,4.6-9.8,8.1s-1.4,6.4,1.4,9.3C42.3,58.4,40.2,61.7,40.2,61.7z"/>
<path class="st3" d="M35.3,55.5l0-0.3c0,0-0.3,0-0.5-0.3c-0.5-0.1-2.3,0.5-2.8,0.3s-2.3-1.4-3.7-1.8s-3.8-0.8-6.2,0.5
	s-5.5,4.7-5.2,6.9c1.1,2,7.8,4.1,10.3,2.6c2.5-1.5,4.6-2.8,4.9-6.5C32.2,55.9,35.3,55.5,35.3,55.5L35.3,55.5z"/>
<path class="st3" d="M52.9,105.4l0.2,0.3c0,0,0.3-0.2,0.5-0.1c0.4-0.2,1.5-1.8,2.1-2s2.7-0.3,4-0.8s3.5-1.7,4.7-4.1
	c1.2-2.4,1.6-7,0-8.7c-2-0.9-8.7,1.4-9.8,4.1s-2,5,0,8.2C55.2,103.2,52.9,105.4,52.9,105.4z"/>
<path class="st3" d="M45.9,90.4l0.4-0.1c0,0-0.1-0.4,0.1-0.6c-0.1-0.6-1.3-2.4-1.3-3.1s0.7-3,0.6-4.6s-0.4-4.4-2.5-6.8
	s-6.7-4.8-9-3.9c-1.7,1.7-1.7,9.8,0.7,12.2s4.4,4.4,8.5,3.6C44.5,87,45.9,90.4,45.9,90.4L45.9,90.4z"/>
<path class="st4" d="M119.6,61.1c0,32.1-26,58.1-58.1,58.1V3C93.5,3,119.6,29,119.6,61.1L119.6,61.1z"/>
<path class="st2" d="M111.6,61.1c0,27.7-22.5,50.2-50.2,50.2V11C89.1,11,111.6,33.4,111.6,61.1z"/>
<path class="st5" d="M111.6,61.1c0,0.8,0,1.7-0.1,2.5C110.2,37.1,88.3,16,61.5,16v-5C89.2,11,111.6,33.4,111.6,61.1z"/>
<path class="st4" d="M97.7,39.5L64.1,61.1l19.4,12.4c0.7,0.4,0.9,1.3,0.4,2c-0.3,0.4-0.7,0.7-1.2,0.7c-0.3,0-0.5-0.1-0.8-0.2
	L61.4,62.8v-3.4l34.7-22.3c0.7-0.4,1.6-0.2,2,0.4C98.5,38.2,98.3,39.1,97.7,39.5L97.7,39.5z"/>
</svg>
